<?xml version="1.0" encoding="utf-8"?>
<!-- Generator: Adobe Illustrator 16.0.4, SVG Export Plug-In . SVG Version: 6.00 Build 0)  -->
<!DOCTYPE svg PUBLIC "-//W3C//DTD SVG 1.1//EN" "http://www.w3.org/Graphics/SVG/1.1/DTD/svg11.dtd">
<svg version="1.1" id="Layer_1" xmlns="http://www.w3.org/2000/svg" xmlns:xlink="http://www.w3.org/1999/xlink" x="0px" y="0px"
	 width="40px" height="40px" viewBox="0 0 40 40" enable-background="new 0 0 40 40" xml:space="preserve">
<title>site-logo-coderdocs</title>
<desc>Created with Sketch.</desc>
<g id="Page-1">
	<g id="site-logo-coderdocs">
		<g id="octagon-solid">
			<path id="Path" fill="#99CCFF" d="M28.188,1.1C27.485,0.397,26.534,0,25.544,0H14.386c-0.99,0-1.941,0.397-2.643,1.1L1.1,11.735
				C0.397,12.437,0,13.388,0,14.378v11.158c0,0.99,0.397,1.941,1.1,2.644l10.643,10.643c0.702,0.702,1.653,1.1,2.643,1.1h11.158
				c0.99,0,1.941-0.397,2.644-1.1L38.83,28.18c0.702-0.702,1.1-1.653,1.1-2.644v-11.15c0-0.99-0.397-1.941-1.1-2.643L28.188,1.1z"/>
		</g>
		<g id="code-regular" transform="translate(6.471735, 7.953216)">
			<path id="Shape" fill="#FFFFFF" d="M11,23.955l-1.817-0.529c-0.197-0.057-0.314-0.267-0.258-0.463l6.595-22.691
				c0.057-0.196,0.267-0.313,0.464-0.257l1.817,0.529c0.196,0.056,0.313,0.267,0.258,0.464l-6.595,22.69
				C11.407,23.898,11.201,24.012,11,23.955z M7.103,18.285l1.274-1.357c0.145-0.154,0.131-0.397-0.023-0.538l-4.969-4.405
				l4.969-4.405c0.159-0.14,0.168-0.384,0.023-0.538L7.103,5.684c-0.141-0.15-0.379-0.159-0.529-0.019L0.12,11.713
				c-0.159,0.15-0.159,0.398,0,0.548l6.454,6.044C6.724,18.445,6.958,18.435,7.103,18.285z M20.409,18.305l6.45-6.044
				c0.159-0.15,0.159-0.398,0-0.548l-6.45-6.048c-0.149-0.14-0.389-0.136-0.529,0.019l-1.273,1.357
				c-0.146,0.154-0.131,0.398,0.023,0.538l4.969,4.405L18.63,16.39c-0.159,0.141-0.169,0.384-0.023,0.538l1.273,1.357
				C20.025,18.435,20.26,18.445,20.409,18.305z"/>
		</g>
	</g>
</g>
</svg>
